<?xml version="1.0" encoding="UTF-8" standalone="no"?>
<!-- Creator: CorelDRAW 2018 (64-Bit) -->

<svg
   xmlns:dc="http://purl.org/dc/elements/1.1/"
   xmlns:cc="http://creativecommons.org/ns#"
   xmlns:rdf="http://www.w3.org/1999/02/22-rdf-syntax-ns#"
   xmlns:svg="http://www.w3.org/2000/svg"
   xmlns="http://www.w3.org/2000/svg"
   xmlns:sodipodi="http://sodipodi.sourceforge.net/DTD/sodipodi-0.dtd"
   xmlns:inkscape="http://www.inkscape.org/namespaces/inkscape"
   xml:space="preserve"
   width="110.2094mm"
   height="89.671394mm"
   version="1.1"
   style="clip-rule:evenodd;fill-rule:evenodd;image-rendering:optimizeQuality;shape-rendering:geometricPrecision;text-rendering:geometricPrecision"
   viewBox="0 0 11020.94 8967.1394"
   id="svg27"
   sodipodi:docname="logo.svg"
   inkscape:version="0.92.5 (2060ec1f9f, 2020-04-08)"><metadata
   id="metadata31"><rdf:RDF><cc:Work
       rdf:about=""><dc:format>image/svg+xml</dc:format><dc:type
         rdf:resource="http://purl.org/dc/dcmitype/StillImage" /><dc:title></dc:title></cc:Work></rdf:RDF></metadata><sodipodi:namedview
   pagecolor="#ffffff"
   bordercolor="#666666"
   borderopacity="1"
   objecttolerance="10"
   gridtolerance="10"
   guidetolerance="10"
   inkscape:pageopacity="0"
   inkscape:pageshadow="2"
   inkscape:window-width="1366"
   inkscape:window-height="731"
   id="namedview29"
   showgrid="false"
   inkscape:zoom="0.73"
   inkscape:cx="76.302448"
   inkscape:cy="119.37634"
   inkscape:window-x="0"
   inkscape:window-y="0"
   inkscape:window-maximized="1"
   inkscape:current-layer="svg27" />
 <defs
   id="defs4">
  <style
   type="text/css"
   id="style2">
   <![CDATA[
    .fil0 {fill:#FEFEFE}
    .fil1 {fill:#EC3137}
   ]]>
  </style>
 </defs>
 <g
   id="Layer_x0020_1"
   transform="matrix(0.99603292,0,0,0.99603292,-5050.8047,-11422.402)">
  <metadata
   id="CorelCorpID_0Corel-Layer" />
  <g
   id="_2384532889376">
   <path
   class="fil0"
   d="m 8508.27,15476.72 c 22.53,-55.2 86.6,-89.4 146,-115.73 97.88,-43.37 111.61,-21.15 203.59,-1.38 l -64.39,93.15 c -18.18,24.21 -42.89,55.33 -71.49,69.64 -43.19,21.61 -174.98,-19.5 -213.71,-45.68 z m 4964.92,1560.64 c -28.37,20.42 -149.37,10.37 -184.97,10.37 l -1315.67,-2.13 c -19.69,-58.1 -7.09,-3510.06 -7.09,-3959.35 0,-42.43 -14.25,-519.37 12.33,-554.34 427.54,8.2 863.22,0.44 1291.68,0.43 829.31,-0.01 1288.27,220.02 1818.6,769.18 84.32,87.31 196.85,245.23 271.37,375.59 270.78,473.66 350.44,1065.85 232.11,1609.4 -171.53,787.87 -795.23,1450.05 -1564.54,1670.92 -123.32,35.41 -418.87,96.54 -553.82,79.93 z M 6812.06,14497.43 c -3.19,15.04 -2.39,18.88 -8.26,34.13 -5.29,13.7 -7.85,13.21 -12.35,19.66 -25.8,173.86 -73.64,266.22 -19.31,486.14 12.82,51.89 37.3,102.2 43.37,153.09 -97.75,-12.51 -438.22,-181.13 -529.89,-228.49 -389.22,-201.06 -780.93,-479.78 -1031.8,-842.79 -28.21,-40.81 -126.83,-208.99 -146.51,-225.69 1.79,218.79 210.6,776.5 309.2,991.48 139.04,303.15 311.54,573.58 492.76,809.84 71.71,93.48 120.59,125.78 114.34,203.29 -10.5,130.09 5.94,182.2 39.38,290.28 16.53,53.39 -28.43,178.84 -1.8,291.6 l 89.66,238.83 c 64.76,160.9 156.66,291.89 278.75,367.85 36.73,22.86 67.63,34.56 105.55,54.08 37.12,19.1 55.85,58.83 84.97,83.59 84.29,71.71 168.23,19.11 247.56,-11.01 15.36,18.2 17.43,20.06 14.17,49.9 8.36,11.12 6.8,6.62 13.83,22.8 1.7,3.9 3.33,11.2 4.79,15.52 3.87,11.44 4.5,16.67 10.27,30.43 26.95,40.36 59.32,43.24 97.58,21.15 31.85,-18.39 48.73,-35.12 91.61,-46.96 11.03,-9.01 -1.03,-5.42 26.09,-16.56 16.19,-6.65 11.45,-2.66 27.14,-6.34 119.35,-13.85 192.95,-33.32 323.79,-30.02 178.31,4.49 76.7,-1.89 247.24,-113.5 451.47,-295.47 870.53,50.68 1436.86,-391.03 73.14,-57.05 122.87,-115.14 190.48,-172.05 119.13,70.84 277.31,5.3 381.31,-52.83 194.88,-108.93 444.91,-247 625.1,-368.5 110.89,-74.77 166.15,-157.33 350.65,-88.56 l -0.2,4360.27 1256.82,0.39 c 8.33,-895.31 0.25,-1818.45 0.25,-2719.6 l 10.16,-180.75 c 354.39,4.9 1493.46,16.93 1825.41,-27.42 88.92,-11.88 178.99,-29.43 261.55,-50.16 77.83,-19.54 164.7,-51.71 236.37,-67.41 9.11,-9.04 2.55,-7.72 17.93,-15.34 10.15,-5.04 22.15,-6.69 31.08,-8.99 141.69,-14.47 556.88,-278.4 681.8,-373.67 110.85,-84.55 190.02,-159.22 283.95,-250.05 376.57,-364.12 646.99,-832.45 756.25,-1370.7 15.68,-77.27 26.49,-150.57 35.92,-229.8 5.79,-48.62 11.21,-215.45 22.37,-246.26 v -216.17 c -12.88,-33.35 -20.06,-215.36 -27.25,-271.51 -29.61,-231.21 -100.62,-505.57 -194.58,-706.89 -146.8,-314.55 -278.33,-503.24 -475.08,-724.71 -315.17,-354.79 -845.56,-806.82 -1496.46,-902.28 -223.65,-32.79 -2115.23,-17.45 -2380.68,-16.7 -624.47,1.77 -1359.96,-42.57 -1960.3,135.8 -66.28,19.69 -168.87,65.78 -224.79,75.59 -130.84,-199.73 -556.64,-308.59 -718.59,-507.29 -113.55,-139.31 -89.06,-157.74 -144.37,-266.24 -135.63,137.56 -180.74,570.64 -122.63,749.99 77.4,238.93 266.22,354.33 560.51,367.93 l -159.03,74.57 c -158.63,77.62 -248.82,184.93 -319.86,355.21 -82.44,197.61 -135.95,500.66 -177.18,732.96 -58.73,330.89 -57.23,463.94 -275.32,632.67 -141.14,109.21 -261.58,153.14 -384.78,289.96 -35.56,39.47 -63.2,96.49 -96.91,135.78 -270.52,-109.55 -552.13,-217.59 -665.4,-452.6 z"
   id="path7"
   inkscape:connector-curvature="0"
   style="fill:#fefefe" />
   <path
   class="fil0"
   d="m 14010.72,17981.32 c 225.63,-7.19 545.92,-36.42 532.88,223.29 -12.1,241.09 -303.57,230.27 -535.83,223.32 z m 1.14,672.61 c 234.88,-1.57 141.73,-48.01 370.97,274.78 l 198.14,289.11 318.54,2.91 c -11.52,-30.75 -399.35,-572.26 -422,-590.83 -12.35,-17.14 -26.4,-12.11 -6.32,-20.96 l 41.35,-12.9 c 7.34,-3.39 24.79,-7.97 31.21,-10.15 276.2,-72.51 373.84,-484 151.51,-691.75 -184.7,-172.58 -640.15,-147.01 -938.44,-137.15 -17.89,61.04 -7.01,1280.28 -7.01,1453.48 l 251.59,1.44 -0.45,-529.58 c 4.12,-31.73 -1.22,-13.35 10.91,-28.4 z"
   id="path9"
   inkscape:connector-curvature="0"
   style="fill:#fefefe" />
   <path
   class="fil0"
   d="m 13118.87,18778.96 c -2.87,20.05 0.06,17.78 -7.67,36.53 -6.23,15.1 -6.28,8.61 -13.88,16.93 -48.7,224.62 -537.26,299.97 -628.81,-42.24 -51.81,-193.63 1.07,-776.83 -23.52,-1033.7 l -260.84,0.08 c -9.65,133.98 -7.88,921.64 9.74,1036.91 45.92,300.55 261.85,455.4 597.56,454.53 688.62,-1.79 609.85,-554.83 609.85,-968.34 0,-162.56 10.65,-364.99 -1.91,-522.7 l -260.84,-0.4 c -29.51,323.92 31.45,703.45 -19.68,1022.4 z"
   id="path11"
   inkscape:connector-curvature="0"
   style="fill:#fefefe" />
   <polygon
   class="fil0"
   points="15399.73,19007.79 15401.76,18575.87 15977.66,18575.51 15977.37,18361.75 15404.6,18361.72 15403.53,17981.14 16064.96,17980.55 16064.96,17759.5 15143.86,17760.2 15143.85,19211.88 16115.9,19207.77 16117.24,19007.86 "
   id="polygon13"
   style="fill:#fefefe" />
   <path
   class="fil0"
   d="m 13443.84,19548.6 c 448.91,-85.06 484.55,660.98 133.28,735.32 -459.23,97.19 -505.59,-664.79 -133.28,-735.32 z m 220.21,-141.77 c -139.86,-30.45 -339.02,-27.47 -470.2,71.97 -294.68,223.37 -263.37,861.47 179.56,957.95 771.95,168.15 796.02,-945.66 290.64,-1029.92 z"
   id="path15"
   inkscape:connector-curvature="0"
   style="fill:#fefefe" />
   <path
   class="fil0"
   d="m 14390.57,19559.54 c 98.08,0 258.28,-10.6 325.49,38.78 46.93,34.48 64.12,106.17 40.73,169.74 -43.33,117.79 -225.51,107.49 -365.81,107.49 l -0.39,-39.74 z m 8.91,474.5 107.23,-1.28 c 39.52,18.5 245.09,340.67 292.78,398.49 l 216.66,-0.06 c -13.81,-46.66 -282.27,-375.04 -292.34,-426.64 104.6,-48.1 178.58,-73.73 212.27,-176.07 27.51,-112.59 19.5,-168.13 -0.55,-237.47 -31.8,-105.63 -186.41,-191.74 -332.48,-180.74 l -396.94,-1.63 -0.16,1019.23 180.95,-0.59 -0.89,-357.82 c 2.63,-36.08 -6.71,-24.03 13.47,-35.42 z"
   id="path17"
   inkscape:connector-curvature="0"
   style="fill:#fefefe" />
   <path
   class="fil0"
   d="m 15453,20012.4 c 1.94,-38.74 102.7,-301.14 122.85,-353.62 17.15,21.5 127.03,318.82 129.96,353.52 z m -361.36,418.94 190.16,-0.2 c 42,-67.43 62.49,-188.51 105.98,-258.53 l 387.9,-3.37 96.78,262.09 193.79,-0.03 c -4.82,-40.07 -266.38,-684.42 -304.26,-781.94 l -76.94,-195.08 c -21.58,-62.01 -6.96,-57.53 -194.57,-50.59 -54.28,177.59 -393.18,948.04 -398.84,1027.65 z"
   id="path19"
   inkscape:connector-curvature="0"
   style="fill:#fefefe" />
   <polygon
   class="fil0"
   points="12877.45,20274.33 12400.95,20274.15 12397.53,19404.81 12210.43,19402.24 12209.47,20431.18 12872.43,20431.63 "
   id="polygon21"
   style="fill:#fefefe" />
   <path
   class="fil1"
   d="m 8508.27,15476.72 c 38.73,26.18 170.52,67.29 213.71,45.68 28.6,-14.31 53.31,-45.43 71.49,-69.64 l 64.39,-93.15 c -91.98,-19.77 -105.71,-41.99 -203.59,1.38 -59.4,26.33 -123.47,60.53 -146,115.73 z"
   id="path23"
   inkscape:connector-curvature="0"
   style="fill:#ec3137" />
  </g>
 </g>
</svg>